<svg width="24" height="23" viewBox="0 0 24 23" fill="none" xmlns="http://www.w3.org/2000/svg">
<path d="M16.8378 1.23973e-06H23.0315C23.2368 1.23973e-06 23.4337 0.0815688 23.5789 0.22676C23.7241 0.371951 23.8057 0.568872 23.8057 0.774203V6.96782C23.8059 7.12114 23.7607 7.2711 23.6756 7.39867C23.5906 7.52624 23.4696 7.62569 23.3279 7.6844C23.1863 7.74311 23.0304 7.75844 22.88 7.72846C22.7297 7.69847 22.5916 7.62451 22.4833 7.51596L19.9347 4.96573L1.90194 23L0.805664 21.9037L18.8399 3.87101L16.2897 1.32234C16.1812 1.21406 16.1072 1.07599 16.0772 0.925623C16.0472 0.77526 16.0626 0.619379 16.1213 0.477741C16.18 0.336103 16.2794 0.215088 16.407 0.130036C16.5346 0.0449843 16.6845 -0.000273084 16.8378 1.23973e-06Z" fill="#808080"/>
</svg>
