<svg width="20" height="24" viewBox="0 0 20 24" fill="none" xmlns="http://www.w3.org/2000/svg">
<path d="M4.99939 0C1.80939 0 -0.000610352 1.73568 -0.000610352 4.7958V22.78C-0.000610352 23.6407 0.89314 24.243 1.71814 23.904L9.99939 20.4944L18.2419 23.904C19.0669 24.243 19.9994 23.6407 19.9994 22.78V4.7958C19.9994 1.65048 18.3681 0 14.9994 0H4.99939ZM4.99939 2.39784H14.9994C16.9569 2.39784 17.4994 2.94684 17.4994 4.7958V20.9815L10.4681 18.0966C10.1531 17.9674 9.80563 17.9674 9.49188 18.0966L2.49939 20.9815V4.7958C2.49939 3.06 3.18939 2.39784 4.99939 2.39784Z" fill="#404040"/>
</svg>
