<svg width="24" height="22" viewBox="0 0 24 22" fill="none" xmlns="http://www.w3.org/2000/svg">
<path d="M6.6 0C2.95488 0 0 3.00894 0 6.72185C0 10.6132 2.1762 14.2845 5.775 17.6455C7.00332 18.7918 8.32584 19.7977 9.63744 20.7008C10.0972 21.0162 10.5271 21.3022 10.9126 21.5405C11.1475 21.6859 11.3024 21.791 11.4 21.846C11.7624 22.0513 12.2376 22.0513 12.6 21.846C12.6976 21.791 12.8525 21.6859 13.0874 21.5405C13.4729 21.3022 13.9028 21.0162 14.3626 20.7008C15.6742 19.7977 16.9967 18.7918 18.225 17.6455C21.8238 14.2845 24 10.6132 24 6.72185C24 3.00894 21.0451 0 17.4 0C15.3298 0 13.3085 1.14884 12.0374 2.82564C10.7981 1.11951 8.78388 0 6.6 0ZM6.6 2.44431C8.05668 2.44431 9.417 3.19717 10.2 4.35333C10.2761 4.46577 10.876 5.36404 10.9874 5.53759C11.4517 6.26233 12.4876 6.28433 12.975 5.57548C13.0936 5.40316 13.7179 4.50852 13.8 4.39242C14.6173 3.22892 16.0478 2.44431 17.4 2.44431C19.7196 2.44431 21.6 4.35942 21.6 6.72185C21.6 9.7809 19.7262 12.8693 16.575 15.8122C15.4408 16.8706 14.2321 17.8361 13.0126 18.6757C12.6438 18.93 12.3149 19.128 12 19.3247C11.6851 19.128 11.3562 18.93 10.9874 18.6757C9.76788 17.8361 8.55924 16.8706 7.425 15.8122C4.2738 12.8693 2.4 9.7809 2.4 6.72185C2.4 4.35942 4.2804 2.44431 6.6 2.44431Z" fill="#404040"/>
</svg>
